<svg xmlns="http://www.w3.org/2000/svg" width="33.627" height="59.268" viewBox="0 0 33.627 59.268">
  <g id="Group_136" data-name="Group 136" transform="translate(0.716 0.701)">
    <path id="Path_118" data-name="Path 118" d="M345.924,549.821l19.7,19.467-19.377,19.606,6.039,6.274,25.74-25.741-25.74-25.741Z" transform="translate(-345.923 -537.315)" fill="#1a1818"/>
    <path id="Path_118_-_Outline" data-name="Path 118 - Outline" d="M352.294,542.986l26.441,26.442L352.28,595.882l-6.73-6.992,19.368-19.6-19.71-19.475Zm25.027,26.442-25.04-25.04-5.641,5.438,19.693,19.458L346.947,588.9l5.347,5.555Z" transform="translate(-345.923 -537.315)" fill="#1a1818"/>
    <path id="Path_119" data-name="Path 119" d="M346.024,543.45l19.7,19.467-19.377,19.606,6.039,6.274,25.74-25.741-25.74-25.741Z" transform="translate(-345.923 -537.315)" fill="#fff"/>
    <path id="Path_119_-_Outline" data-name="Path 119 - Outline" d="M352.394,536.615l26.441,26.442L352.38,589.511l-6.73-6.993,19.368-19.6-19.71-19.475Zm25.027,26.442-25.04-25.04-5.641,5.438,19.693,19.458-19.386,19.615,5.347,5.555Z" transform="translate(-345.923 -537.315)" fill="#1a1818"/>
  </g>
</svg>
