<svg xmlns="http://www.w3.org/2000/svg" xmlns:xlink="http://www.w3.org/1999/xlink" version="1.1" id="Layer_2" x="0px" y="0px" viewBox="0 0 278.63 142.33" enable-background="new 0 0 278.63 142.33" xml:space="preserve"><script xmlns="" id="youtube-hd-fjdmkanbdloodhegphphhklnjfngoffa">var ythdlog = () =&gt; {};;var ythderror = () =&gt; {};</script>
<g>
	<polygon points="226,87.43 166.68,87.43 154.9,81.67 156,79.42 167.26,84.93 226,84.93  "/>
	<polygon points="168.22,141.01 165.72,141.01 165.72,85.48 196.04,66.78 197.35,68.91 168.22,86.88  "/>
	<rect x="189.74" y="58.63" transform="matrix(0.4452 -0.8954 0.8954 0.4452 47.7554 207.0862)" width="2.5" height="12.75"/>
	<path d="M227.25,142.33h-60.83l-12.26-13.43l0.04-49.05l29.83-18.37V50.38l13.91,6.72v10.05l29.3,18.34V142.33z M167.52,139.83   h57.23V86.87l-29.3-18.34v-9.87l-8.91-4.3v8.5L156.7,81.24l-0.04,46.68L167.52,139.83z"/>
</g>
<g id="Layer_1">
	<g>
		<path d="M22.16,45.34c-1.36,2.71-4.36,5.07-8.78,5.07c-8.31,0-13.44-6.6-13.44-15.03c0-8.01,5.42-14.85,13.44-14.85    c5.01,0,7.72,2.48,8.66,4.77V6.98h5.48V44.4c0,2.71,0.24,4.77,0.29,5.24h-5.36c-0.12-0.65-0.29-2.12-0.29-3.83V45.34z     M13.91,45.52c5.07,0,8.19-4.42,8.19-10.25s-3.06-9.84-8.13-9.84S5.6,29.55,5.6,35.38S8.6,45.52,13.91,45.52z"/>
		<path d="M58.11,41.57c-1.59,5.01-6.13,8.96-12.73,8.96c-7.6,0-14.26-5.54-14.26-15.14c0-8.9,6.42-14.97,13.55-14.97    c8.72,0,13.61,6.01,13.61,14.85c0,0.71-0.06,1.41-0.12,1.77H36.83c0.12,5.07,3.77,8.6,8.54,8.6c4.6,0,6.89-2.53,7.96-5.72    L58.11,41.57z M52.51,32.56c-0.12-4.07-2.77-7.25-7.78-7.25c-4.66,0-7.48,3.59-7.72,7.25H52.51z"/>
		<path d="M65.36,40.51c0.35,2.95,2.59,5.3,6.6,5.3c3.12,0,4.83-1.77,4.83-3.77c0-1.77-1.3-3.12-3.65-3.65l-4.83-1.06    c-4.42-0.94-7.07-3.95-7.07-7.96c0-4.83,4.54-8.96,10.08-8.96c7.78,0,10.19,5.07,10.78,7.6l-4.89,1.83    c-0.24-1.47-1.41-4.71-5.89-4.71c-2.83,0-4.71,1.83-4.71,3.77c0,1.71,1.06,2.95,3.24,3.42l4.6,1c5.13,1.12,7.84,4.24,7.84,8.43    c0,4.01-3.36,8.78-10.37,8.78c-7.78,0-11.08-5.01-11.55-8.25L65.36,40.51z"/>
		<path d="M88.81,6.57c2.24,0,4.01,1.77,4.01,4.01c0,2.18-1.77,3.95-4.01,3.95c-2.18,0-3.95-1.77-3.95-3.95    C84.86,8.34,86.63,6.57,88.81,6.57z M86.1,49.65V21.3h5.48v28.35H86.1z"/>
		<path d="M100.77,49.94c0.41,3.95,3.42,6.95,7.72,6.95c5.95,0,8.66-3.06,8.66-9.19v-4.07c-1.36,2.59-4.42,4.66-8.66,4.66    c-7.54,0-13.02-5.72-13.02-13.73c0-7.66,5.24-13.79,13.02-13.79c4.36,0,7.31,1.65,8.72,4.48V21.3h5.48v26.22    c0,7.19-3.54,14.2-14.2,14.2c-7.07,0-12.38-4.48-13.08-10.55L100.77,49.94z M117.39,34.56c0-5.48-3.3-9.08-8.07-9.08    c-4.89,0-8.19,3.59-8.19,9.08c0,5.54,3.18,9.08,8.19,9.08C114.09,43.63,117.39,40.04,117.39,34.56z"/>
		<path d="M132.36,49.65h-5.54V21.3h5.42v4.07c2.06-3.54,5.42-4.89,8.72-4.89c6.78,0,10.14,4.89,10.14,11.2v17.97h-5.54V32.61    c0-3.95-1.65-7.13-6.6-7.13c-4.36,0-6.6,3.48-6.6,7.78V49.65z"/>
	</g>
	<rect x="160.73" y="-1.83" transform="matrix(0.9333 -0.3592 0.3592 0.9333 -2.4861 60.9307)" width="4" height="77.96"/>
	<g>
		<path d="M174.68,49.65V21.3h5.3v3.77c1.77-3.12,5.3-4.6,8.6-4.6c3.54,0,6.95,1.71,8.49,5.36c2.24-4.07,5.89-5.36,9.49-5.36    c4.95,0,9.78,3.36,9.78,10.78v18.39h-5.48v-17.8c0-3.71-1.83-6.48-6.01-6.48c-3.89,0-6.54,3.06-6.54,7.13v17.15h-5.54v-17.8    c0-3.65-1.77-6.48-6.01-6.48c-3.95,0-6.6,2.95-6.6,7.19v17.09H174.68z"/>
		<path d="M224.36,6.57c2.24,0,4.01,1.77,4.01,4.01c0,2.18-1.77,3.95-4.01,3.95c-2.18,0-3.95-1.77-3.95-3.95    C220.41,8.34,222.18,6.57,224.36,6.57z M221.65,49.65V21.3h5.48v28.35H221.65z"/>
		<path d="M233.02,49.65V6.98h5.54v42.67H233.02z"/>
		<path d="M257.77,33.26l12.32,16.38h-6.95l-9.25-12.49l-3.95,3.95v8.54h-5.48V6.98h5.48v26.87l12.26-12.55h7.66L257.77,33.26z"/>
	</g>
	<g>
		<path d="M203.73,131.98c-0.37,0.74-1.2,1.39-2.41,1.39c-2.28,0-3.68-1.81-3.68-4.12c0-2.2,1.49-4.07,3.68-4.07    c1.37,0,2.12,0.68,2.37,1.31v-5.02h1.5v10.25c0,0.74,0.06,1.31,0.08,1.44h-1.47c-0.03-0.18-0.08-0.58-0.08-1.05V131.98z     M201.47,132.03c1.39,0,2.24-1.21,2.24-2.81c0-1.6-0.84-2.7-2.23-2.7c-1.39,0-2.29,1.13-2.29,2.73    C199.19,130.85,200.02,132.03,201.47,132.03z"/>
		<path d="M206.81,133.16v-7.77h1.45v1.03c0.48-0.86,1.45-1.26,2.36-1.26c0.97,0,1.91,0.47,2.32,1.47c0.61-1.11,1.62-1.47,2.6-1.47    c1.36,0,2.68,0.92,2.68,2.95v5.04h-1.5v-4.88c0-1.02-0.5-1.78-1.65-1.78c-1.07,0-1.79,0.84-1.79,1.95v4.7h-1.52v-4.88    c0-1-0.48-1.78-1.65-1.78c-1.08,0-1.81,0.81-1.81,1.97v4.68H206.81z"/>
	</g>
</g>
<text transform="matrix(1 0 0 1 269.3145 20.7867)" font-family="'CircularStd-Book'" font-size="12px">®</text>
</svg>