<svg xmlns="http://www.w3.org/2000/svg" width="37.278" height="69.443" viewBox="0 0 37.278 69.443">
  <g id="Group_108" data-name="Group 108" transform="translate(-540.793 -39.739)">
    <path id="Path_93" data-name="Path 93" d="M541.5,50.731l25.842,25.842L541.5,102.416l5.011,5.011,30.853-30.853L546.511,45.721Z" transform="translate(0 1.048)" fill="#1a1818"/>
    <path id="Path_93_-_Outline" data-name="Path 93 - Outline" d="M546.511,45.014l31.56,31.56-31.56,31.56-5.718-5.718,25.842-25.842L540.793,50.731Zm30.146,31.56L546.511,46.428l-4.3,4.3L568.05,76.574l-25.842,25.842,4.3,4.3Z" transform="translate(0 1.048)" fill="#1a1818"/>
    <path id="Path_94" data-name="Path 94" d="M541.5,45.456,567.343,71.3,541.5,97.141l5.011,5.011L577.364,71.3,546.511,40.446Z" transform="translate(0 0)" fill="#fff"/>
    <path id="Path_94_-_Outline" data-name="Path 94 - Outline" d="M546.511,39.739l31.56,31.56-31.56,31.56-5.718-5.718L566.636,71.3,540.793,45.456ZM576.657,71.3,546.511,41.153l-4.3,4.3L568.05,71.3,542.207,97.141l4.3,4.3Z" transform="translate(0 0)" fill="#1a1818"/>
  </g>
</svg>
