<svg xmlns="http://www.w3.org/2000/svg" width="37.559" height="69.442" viewBox="0 0 37.559 69.442">
  <g id="Group_109" data-name="Group 109" transform="translate(-151.388 -537.287)">
    <path id="Path_96" data-name="Path 96" d="M188.24,599.967,162.2,573.922l26.045-26.045-5.05-5.05L152.1,573.922l31.095,31.095Z" transform="translate(0 1.005)" fill="#1a1818"/>
    <path id="Path_96_-_Outline" data-name="Path 96 - Outline" d="M183.19,605.724l-31.8-31.8,31.8-31.8,5.757,5.757L162.9,573.922l26.045,26.045Zm-30.388-31.8L183.19,604.31l4.343-4.343-26.045-26.045,26.045-26.045-4.343-4.343Z" transform="translate(0 1.005)" fill="#1a1818"/>
    <path id="Path_97" data-name="Path 97" d="M188.24,595.134,162.2,569.089l26.045-26.045-5.05-5.05-31.095,31.1,31.095,31.095Z" fill="#fff"/>
    <path id="Path_97_-_Outline" data-name="Path 97 - Outline" d="M183.19,600.891l-31.8-31.8,31.8-31.8,5.757,5.757L162.9,569.089l26.045,26.045Zm-30.388-31.8,30.388,30.388,4.343-4.343-26.045-26.045,26.045-26.045L183.19,538.7Z" fill="#1a1818"/>
  </g>
</svg>
