<svg xmlns="http://www.w3.org/2000/svg" width="40.646" height="28.453" viewBox="0 0 40.646 28.453">
<path data-name="Path 147" d="M124.347,89.482a5.091,5.091,0,0,0-3.594-3.593c-3.17-.85-15.88-.85-15.88-.85s-12.71,0-15.88.85A5.091,5.091,0,0,0,85.4,89.482c-.849,3.17-.849,9.783-.849,9.783s0,6.614.849,9.784a5.09,5.09,0,0,0,3.594,3.593c3.17.85,15.88.85,15.88.85s12.71,0,15.88-.85a5.09,5.09,0,0,0,3.594-3.593c.849-3.17.849-9.784.849-9.784S125.2,92.652,124.347,89.482Z" transform="translate(-84.55 -85.039)"></path>
<path data-name="Path 148" d="M133.144,121.53V109.336l10.56,6.1Z" transform="translate(-116.885 -101.207)" fill="#fff"></path>
</svg>