<svg xmlns="http://www.w3.org/2000/svg" width="33.578" height="38.594" viewBox="0 0 33.578 38.594">
<g data-name="Group 83" transform="translate(-62.019 -773.594)">
<g data-name="Group 61" transform="translate(62.726 780.276)">
<path data-name="Path 53" d="M93.931,796.29l-.749-14.167-14.167-.718L62.726,797.694,77.61,812.61l16.321-16.32Zm-5.992-11.484a1.809,1.809,0,0,1,2.559,2.559,1.809,1.809,0,0,1-2.559-2.559Z" transform="translate(-62.726 -781.405)" fill="none" stroke="#1a1818" stroke-miterlimit="10" stroke-width="1"></path>
</g>
<g data-name="Group 63" transform="translate(64.392 773.594)">
<g data-name="Group 62">
<path data-name="Path 54" d="M95.879,788.478l-.749-14.167-14.167-.717L64.674,789.882,79.558,804.8l16.321-16.32Zm-5.992-11.484a1.809,1.809,0,0,1,2.559,2.559,1.809,1.809,0,0,1-2.559-2.559Z" transform="translate(-64.674 -773.594)" fill="#1a1818"></path>
</g>
<circle data-name="Ellipse 20" cx="1.818" cy="1.818" r="1.818" transform="translate(24.675 2.863)" fill="#fff"></circle>
</g>
<path data-name="Path 55" d="M67.452,789.131l-4.626,4.626,14.885,14.916,4.642-4.642Z" transform="translate(-0.014 -2.246)" fill="#1a1818"></path>
</g>
</svg>