<svg xmlns="http://www.w3.org/2000/svg" width="29.048" height="29.048" viewBox="0 0 29.048 29.048">
<path data-name="Path 67" d="M14.524,0A14.527,14.527,0,0,0,9.231,28.054a13.954,13.954,0,0,1,.05-4.171c.264-1.134,1.7-7.22,1.7-7.22a5.244,5.244,0,0,1-.434-2.156c0-2.02,1.171-3.527,2.628-3.527a1.825,1.825,0,0,1,1.838,2.046c0,1.246-.793,3.109-1.2,4.836a2.109,2.109,0,0,0,2.151,2.625c2.581,0,4.566-2.722,4.566-6.651a5.734,5.734,0,0,0-6.067-5.909,6.287,6.287,0,0,0-6.558,6.3,5.65,5.65,0,0,0,1.081,3.314.434.434,0,0,1,.1.417c-.11.459-.355,1.445-.4,1.647-.063.266-.211.322-.486.194-1.814-.844-2.948-3.5-2.948-5.627,0-4.582,3.329-8.789,9.6-8.789,5.038,0,8.954,3.59,8.954,8.388,0,5.006-3.156,9.034-7.537,9.034a3.887,3.887,0,0,1-3.329-1.668s-.728,2.773-.9,3.453A16.239,16.239,0,0,1,10.224,28.4,14.526,14.526,0,1,0,14.524,0Z" fill="#fff"></path>
</svg>