<svg xmlns="http://www.w3.org/2000/svg" width="41.497" height="29.049" viewBox="0 0 41.497 29.049">
<path data-name="Path 95" d="M125.18,89.571a5.2,5.2,0,0,0-3.669-3.669c-3.236-.867-16.213-.867-16.213-.867s-12.977,0-16.213.867a5.2,5.2,0,0,0-3.669,3.669c-.867,3.236-.867,9.988-.867,9.988s0,6.752.867,9.988a5.2,5.2,0,0,0,3.669,3.669c3.236.867,16.213.867,16.213.867s12.977,0,16.213-.867a5.2,5.2,0,0,0,3.669-3.669c.867-3.236.867-9.988.867-9.988S126.047,92.807,125.18,89.571Zm-24.031,16.213V93.335L111.93,99.56Z" transform="translate(-84.55 -85.035)" fill="#fff"></path>
</svg>