<svg data-name="Group 72" xmlns="http://www.w3.org/2000/svg" width="31.103" height="31.103" viewBox="0 0 31.103 31.103">
<path data-name="Path 65" d="M19.63,6.881c4.152,0,4.644.016,6.284.091a8.608,8.608,0,0,1,2.888.535,5.15,5.15,0,0,1,2.951,2.951,8.607,8.607,0,0,1,.535,2.888c.075,1.64.091,2.132.091,6.284s-.016,4.644-.091,6.284a8.608,8.608,0,0,1-.535,2.888A5.15,5.15,0,0,1,28.8,31.754a8.608,8.608,0,0,1-2.888.535c-1.64.075-2.131.091-6.284.091s-4.644-.016-6.284-.091a8.607,8.607,0,0,1-2.888-.535A5.15,5.15,0,0,1,7.507,28.8a8.608,8.608,0,0,1-.535-2.888c-.075-1.64-.091-2.132-.091-6.284s.016-4.644.091-6.284a8.607,8.607,0,0,1,.535-2.888,5.15,5.15,0,0,1,2.951-2.951,8.607,8.607,0,0,1,2.888-.535c1.64-.075,2.132-.091,6.284-.091m0-2.8c-4.224,0-4.753.018-6.412.094A11.415,11.415,0,0,0,9.444,4.9,7.952,7.952,0,0,0,4.9,9.444a11.415,11.415,0,0,0-.723,3.775c-.076,1.659-.094,2.188-.094,6.412s.018,4.753.094,6.412A11.415,11.415,0,0,0,4.9,29.817a7.952,7.952,0,0,0,4.548,4.548,11.415,11.415,0,0,0,3.775.723c1.659.076,2.188.094,6.412.094s4.753-.018,6.412-.094a11.415,11.415,0,0,0,3.775-.723,7.952,7.952,0,0,0,4.548-4.548,11.415,11.415,0,0,0,.723-3.775c.076-1.659.094-2.188.094-6.412s-.018-4.753-.094-6.412a11.415,11.415,0,0,0-.723-3.775A7.952,7.952,0,0,0,29.817,4.9a11.415,11.415,0,0,0-3.775-.723c-1.659-.076-2.188-.094-6.412-.094Z" transform="translate(-4.079 -4.079)"></path>
<path data-name="Path 66" d="M134.621,126.635a7.986,7.986,0,1,0,7.986,7.986A7.986,7.986,0,0,0,134.621,126.635Zm0,13.17a5.184,5.184,0,1,1,5.184-5.184A5.184,5.184,0,0,1,134.621,139.8Z" transform="translate(-119.069 -119.069)"></path>
<ellipse data-name="Ellipse 22" cx="1.866" cy="1.866" rx="1.866" ry="1.866" transform="translate(21.987 5.384)"></ellipse>
</svg>